# Blender v2.75 (sub 0) OBJ File: 'Table.blend'
# www.blender.org
mtllib Cloth_Lo.mtl
o Cube.012_Cube.002
v 3.991418 0.630359 1.481647
v 3.991418 0.737029 1.481647
v 3.991418 0.630359 2.222471
v 3.991418 0.523688 1.481647
v 3.991418 0.630359 0.740824
v 3.991418 0.737029 0.740824
v 3.991418 0.737029 2.222471
v 3.991418 0.523688 2.222471
v 3.991418 0.523688 0.740824
v -3.991418 0.630359 1.481647
v -3.991418 0.630359 0.740824
v -3.991418 0.523688 1.481647
v -3.991418 0.630359 2.222471
v -3.991418 0.737029 1.481647
v -3.991418 0.737029 0.740824
v -3.991418 0.523688 0.740824
v -3.991418 0.523688 2.222471
v -3.991418 0.737029 2.222471
v 2.660945 0.843699 -1.481647
v 2.660946 0.843699 -0.740824
v 3.326182 0.843699 -1.481647
v 2.660945 0.843699 -2.222471
v 1.995709 0.843699 -1.481647
v 1.995709 0.843699 -0.740824
v 3.326182 0.843699 -0.740824
v 3.326182 0.843699 -2.222471
v 1.995709 0.843699 -2.222471
v -2.660945 0.843699 -1.481647
v -2.660945 0.843699 -0.740824
v -1.995709 0.843699 -1.481647
v -2.660946 0.843699 -2.222471
v -3.326182 0.843699 -1.481647
v -3.326182 0.843699 -0.740824
v -1.995709 0.843699 -0.740824
v -1.995709 0.843699 -2.222471
v -3.326182 0.843699 -2.222471
v 0.000000 0.843699 -1.481647
v 0.000000 0.843699 -0.740824
v 0.665236 0.843699 -1.481647
v 0.000000 0.843699 -2.222471
v -0.665236 0.843699 -1.481647
v -0.665236 0.843699 -0.740824
v 0.665236 0.843699 -0.740824
v 0.665236 0.843699 -2.222471
v -0.665236 0.843699 -2.222471
v 0.000000 0.843699 1.481647
v 0.000000 0.843699 2.222471
v 0.665236 0.843699 1.481647
v 0.000000 0.843699 0.740824
v -0.665236 0.843699 1.481647
v -0.665236 0.843699 2.222471
v 0.665236 0.843699 2.222471
v 0.665236 0.843699 0.740824
v -0.665236 0.843699 0.740824
v -2.660945 0.843699 1.481647
v -2.660945 0.843699 2.222471
v -1.995709 0.843699 1.481647
v -2.660946 0.843699 0.740824
v -3.326182 0.843699 1.481647
v -3.326182 0.843699 2.222471
v -1.995709 0.843699 2.222471
v -1.995709 0.843699 0.740824
v -3.326182 0.843699 0.740824
v 2.660945 0.843699 1.481647
v 2.660946 0.843699 2.222471
v 3.326182 0.843699 1.481647
v 2.660945 0.843699 0.740824
v 1.995709 0.843699 1.481647
v 1.995709 0.843699 2.222471
v 3.326182 0.843699 2.222471
v 3.326182 0.843699 0.740824
v 1.995709 0.843699 0.740824
v -3.991418 0.630359 -1.481647
v -3.991418 0.630359 -2.222471
v -3.991418 0.523688 -1.481647
v -3.991418 0.630359 -0.740824
v -3.991418 0.737029 -1.481647
v -3.991418 0.737029 -2.222471
v -3.991418 0.523688 -2.222471
v -3.991418 0.523688 -0.740824
v -3.991418 0.737029 -0.740824
v 3.991418 0.630359 -1.481647
v 3.991418 0.737029 -1.481647
v 3.991418 0.630359 -0.740824
v 3.991418 0.523688 -1.481647
v 3.991418 0.630359 -2.222471
v 3.991418 0.737029 -2.222471
v 3.991418 0.737029 -0.740824
v 3.991418 0.523688 -0.740824
v 3.991418 0.523688 -2.222471
v 3.991418 0.417018 0.740824
v 3.991418 0.417018 1.481647
v 3.991418 0.417018 2.222471
v 3.991418 0.843699 0.740824
v 3.991418 0.843699 1.481647
v 3.991418 0.843699 2.222471
v 3.991418 0.523688 -2.963295
v 3.991418 0.630359 -2.963295
v 3.991418 0.737029 -2.963295
v 3.991418 0.737029 2.963295
v 3.991418 0.630359 2.963295
v 3.991418 0.523688 2.963295
v -3.991418 0.417018 0.740824
v -3.991418 0.417018 1.481647
v -3.991418 0.417018 2.222471
v -3.991418 0.843699 0.740824
v -3.991418 0.843699 1.481647
v -3.991418 0.843699 2.222471
v -3.991418 0.523688 -2.963295
v -3.991418 0.630359 -2.963295
v -3.991418 0.737029 -2.963295
v -3.991418 0.737029 2.963295
v -3.991418 0.630359 2.963295
v -3.991418 0.523688 2.963295
v 1.995709 0.843699 2.963295
v 2.660945 0.843699 2.963295
v 3.326182 0.843699 2.963295
v 1.995709 0.843699 -2.963295
v 2.660945 0.843699 -2.963295
v 3.326182 0.843699 -2.963295
v -3.326182 0.843699 2.963295
v -2.660945 0.843699 2.963295
v -1.995709 0.843699 2.963295
v -0.665236 0.843699 2.963295
v 0.000000 0.843699 2.963295
v 0.665236 0.843699 2.963295
v -3.326182 0.843699 -2.963295
v -2.660945 0.843699 -2.963295
v -1.995709 0.843699 -2.963295
v -0.665236 0.843699 -2.963295
v 0.000000 0.843699 -2.963295
v 0.665236 0.843699 -2.963295
v -1.330473 0.843699 -0.740824
v -1.330473 0.843699 -1.481647
v -1.330473 0.843699 -2.222471
v 1.330473 0.843699 -0.740824
v 1.330473 0.843699 -1.481647
v 1.330473 0.843699 -2.222471
v 3.991418 0.417018 -2.222471
v 3.991418 0.417018 -1.481647
v 3.991418 0.417018 -0.740824
v 3.991418 0.843699 -2.222471
v 3.991418 0.843699 -1.481647
v 3.991418 0.843699 -0.740824
v -3.991418 0.417018 -2.222471
v -3.991418 0.417018 -1.481647
v -3.991418 0.417018 -0.740824
v -3.991418 0.843699 -2.222471
v -3.991418 0.843699 -1.481647
v -3.991418 0.843699 -0.740824
v -1.330473 0.843699 2.222471
v -1.330473 0.843699 1.481647
v -1.330473 0.843699 0.740824
v 1.330473 0.843699 2.222471
v 1.330473 0.843699 1.481647
v 1.330473 0.843699 0.740824
v 0.665236 0.843699 -0.000000
v 0.000000 0.843699 -0.000000
v -0.665236 0.843699 -0.000000
v -1.995709 0.843699 -0.000000
v -2.660945 0.843699 -0.000000
v -3.326182 0.843699 -0.000000
v 3.326182 0.843699 -0.000000
v 2.660945 0.843699 -0.000000
v 1.995709 0.843699 -0.000000
v -3.991418 0.523688 -0.000000
v -3.991418 0.630359 -0.000000
v -3.991418 0.737029 -0.000000
v 3.991418 0.737029 -0.000000
v 3.991418 0.630359 -0.000000
v 3.991418 0.523688 -0.000000
v 3.991418 0.417018 2.963295
v 3.991418 0.417018 -2.963295
v 3.991418 0.843699 -2.963295
v 3.991418 0.843699 2.963295
v -3.991418 0.417018 2.963295
v -3.991418 0.417018 -2.963295
v -3.991418 0.843699 -2.963295
v -3.991418 0.843699 2.963295
v -1.330473 0.843699 2.963295
v 1.330473 0.843699 2.963295
v -1.330473 0.843699 -2.963295
v 1.330473 0.843699 -2.963295
v 3.991418 0.417018 -0.000000
v 3.991418 0.843699 -0.000000
v -3.991418 0.417018 -0.000000
v -3.991418 0.843699 -0.000000
v -1.330473 0.843699 -0.000000
v 1.330473 0.843699 -0.000000
v 3.991418 0.630359 1.481647
v 3.991418 0.737029 1.481647
v 3.991418 0.630359 2.222471
v 3.991418 0.523688 1.481647
v 3.991418 0.630359 0.740824
v 3.991418 0.737029 0.740824
v 3.991418 0.737029 2.222471
v 3.991418 0.523688 2.222471
v 3.991418 0.523688 0.740824
v -3.991418 0.630359 1.481647
v -3.991418 0.630359 0.740824
v -3.991418 0.523688 1.481647
v -3.991418 0.630359 2.222471
v -3.991418 0.737029 1.481647
v -3.991418 0.737029 0.740824
v -3.991418 0.523688 0.740824
v -3.991418 0.523688 2.222471
v -3.991418 0.737029 2.222471
v -3.991418 0.630359 -1.481647
v -3.991418 0.630359 -2.222471
v -3.991418 0.523688 -1.481647
v -3.991418 0.630359 -0.740824
v -3.991418 0.737029 -1.481647
v -3.991418 0.737029 -2.222471
v -3.991418 0.523688 -2.222471
v -3.991418 0.523688 -0.740824
v -3.991418 0.737029 -0.740824
v 3.991418 0.630359 -1.481647
v 3.991418 0.737029 -1.481647
v 3.991418 0.630359 -0.740824
v 3.991418 0.523688 -1.481647
v 3.991418 0.630359 -2.222471
v 3.991418 0.737029 -2.222471
v 3.991418 0.737029 -0.740824
v 3.991418 0.523688 -0.740824
v 3.991418 0.523688 -2.222471
v 3.991418 0.417018 0.740824
v 3.991418 0.417018 1.481647
v 3.991418 0.417018 2.222471
v 3.991418 0.843699 0.740824
v 3.991418 0.843699 1.481647
v 3.991418 0.843699 2.222471
v 3.991418 0.523688 -2.963295
v 3.991418 0.630359 -2.963295
v 3.991418 0.737029 -2.963295
v 3.991418 0.737029 2.963295
v 3.991418 0.630359 2.963295
v 3.991418 0.523688 2.963295
v -3.991418 0.417018 0.740824
v -3.991418 0.417018 1.481647
v -3.991418 0.417018 2.222471
v -3.991418 0.843699 0.740824
v -3.991418 0.843699 1.481647
v -3.991418 0.843699 2.222471
v -3.991418 0.523688 -2.963295
v -3.991418 0.630359 -2.963295
v -3.991418 0.737029 -2.963295
v -3.991418 0.737029 2.963295
v -3.991418 0.630359 2.963295
v -3.991418 0.523688 2.963295
v 3.991418 0.417018 -2.222471
v 3.991418 0.417018 -1.481647
v 3.991418 0.417018 -0.740824
v 3.991418 0.843699 -2.222471
v 3.991418 0.843699 -1.481647
v 3.991418 0.843699 -0.740824
v -3.991418 0.417018 -2.222471
v -3.991418 0.417018 -1.481647
v -3.991418 0.417018 -0.740824
v -3.991418 0.843699 -2.222471
v -3.991418 0.843699 -1.481647
v -3.991418 0.843699 -0.740824
v -3.991418 0.523688 -0.000000
v -3.991418 0.630359 -0.000000
v -3.991418 0.737029 -0.000000
v 3.991418 0.737029 -0.000000
v 3.991418 0.630359 -0.000000
v 3.991418 0.523688 -0.000000
v 3.991418 0.417018 2.963295
v 3.991418 0.417018 -2.963295
v 3.991418 0.843699 -2.963295
v 3.991418 0.843699 2.963295
v -3.991418 0.417018 2.963295
v -3.991418 0.417018 -2.963295
v -3.991418 0.843699 -2.963295
v -3.991418 0.843699 2.963295
v 3.991418 0.417018 -0.000000
v 3.991418 0.843699 -0.000000
v -3.991418 0.417018 -0.000000
v -3.991418 0.843699 -0.000000
vt 0.974737 0.168461
vt 0.974737 0.252103
vt 0.962693 0.252103
vt 0.962693 0.168461
vt 0.950649 0.252103
vt 0.950649 0.168461
vt 0.974737 0.335746
vt 0.962693 0.335746
vt 0.950649 0.335746
vt 0.962693 0.084819
vt 0.974737 0.084819
vt 0.962693 0.001176
vt 0.974737 0.001176
vt 0.950649 0.084819
vt 0.950649 0.001176
vt 0.986780 0.084819
vt 0.986780 0.168461
vt 0.998824 0.084819
vt 0.998824 0.168461
vt 0.986780 0.001176
vt 0.998824 0.001176
vt 0.986780 0.252103
vt 0.986780 0.335746
vt 0.998824 0.252103
vt 0.998824 0.335746
vt 0.025263 0.168461
vt 0.037307 0.168461
vt 0.037307 0.252104
vt 0.025264 0.252104
vt 0.037307 0.335746
vt 0.025263 0.335746
vt 0.049351 0.168461
vt 0.049351 0.252104
vt 0.049351 0.335746
vt 0.013220 0.252104
vt 0.013220 0.168461
vt 0.001176 0.252104
vt 0.001176 0.168461
vt 0.013220 0.335746
vt 0.001176 0.335746
vt 0.013220 0.084819
vt 0.025263 0.084819
vt 0.013220 0.001177
vt 0.025263 0.001176
vt 0.001176 0.084819
vt 0.001176 0.001177
vt 0.037307 0.084819
vt 0.049351 0.084819
vt 0.037307 0.001177
vt 0.049351 0.001177
vt 0.800433 0.503031
vt 0.725325 0.503031
vt 0.725325 0.419388
vt 0.800433 0.419388
vt 0.725325 0.335746
vt 0.800433 0.335746
vt 0.650217 0.503031
vt 0.650217 0.419388
vt 0.650217 0.335746
vt 0.875541 0.419388
vt 0.875541 0.503031
vt 0.950650 0.419388
vt 0.950649 0.503031
vt 0.875541 0.335746
vt 0.875541 0.586673
vt 0.800433 0.586673
vt 0.875541 0.670315
vt 0.800433 0.670315
vt 0.950650 0.586673
vt 0.950650 0.670315
vt 0.725325 0.586673
vt 0.650217 0.586673
vt 0.725325 0.670315
vt 0.650217 0.670315
vt 0.199567 0.503031
vt 0.124459 0.503031
vt 0.124459 0.419388
vt 0.199567 0.419388
vt 0.124459 0.335746
vt 0.199567 0.335746
vt 0.049351 0.503031
vt 0.049351 0.419388
vt 0.274675 0.419388
vt 0.274675 0.503031
vt 0.349784 0.419388
vt 0.349784 0.503031
vt 0.274675 0.335746
vt 0.349784 0.335746
vt 0.274675 0.586673
vt 0.199567 0.586673
vt 0.274675 0.670316
vt 0.199567 0.670316
vt 0.349784 0.586673
vt 0.349784 0.670316
vt 0.124459 0.586673
vt 0.049351 0.586673
vt 0.124459 0.670316
vt 0.049351 0.670316
vt 0.500000 0.503031
vt 0.424892 0.503031
vt 0.424892 0.419388
vt 0.500000 0.419388
vt 0.424892 0.335746
vt 0.500000 0.335746
vt 0.575108 0.419388
vt 0.575108 0.503031
vt 0.575108 0.335746
vt 0.575108 0.586673
vt 0.500000 0.586673
vt 0.575108 0.670315
vt 0.500000 0.670315
vt 0.424892 0.586673
vt 0.424892 0.670316
vt 0.500000 0.168461
vt 0.424892 0.168461
vt 0.424892 0.084819
vt 0.500000 0.084819
vt 0.424892 0.001176
vt 0.500000 0.001176
vt 0.349783 0.168461
vt 0.349783 0.084819
vt 0.349783 0.001176
vt 0.575108 0.084819
vt 0.575108 0.168461
vt 0.650216 0.084819
vt 0.650216 0.168461
vt 0.575108 0.001176
vt 0.650216 0.001176
vt 0.575108 0.252103
vt 0.500000 0.252103
vt 0.650216 0.252103
vt 0.424892 0.252103
vt 0.349784 0.252104
vt 0.199567 0.168461
vt 0.124459 0.168461
vt 0.124459 0.084819
vt 0.199567 0.084819
vt 0.124459 0.001176
vt 0.199567 0.001176
vt 0.274675 0.084819
vt 0.274675 0.168461
vt 0.274675 0.001176
vt 0.274675 0.252104
vt 0.199567 0.252104
vt 0.124459 0.252104
vt 0.800433 0.168461
vt 0.725325 0.168461
vt 0.725325 0.084819
vt 0.800433 0.084819
vt 0.725325 0.001176
vt 0.800433 0.001176
vt 0.875541 0.084819
vt 0.875541 0.168461
vt 0.875541 0.001176
vt 0.875541 0.252103
vt 0.800433 0.252103
vt 0.725325 0.252103
vt 0.025264 0.503031
vt 0.037307 0.503031
vt 0.037307 0.586673
vt 0.025263 0.586673
vt 0.037307 0.670316
vt 0.025263 0.670316
vt 0.013220 0.586673
vt 0.013220 0.503031
vt 0.001176 0.586673
vt 0.001176 0.503031
vt 0.013220 0.670316
vt 0.001176 0.670316
vt 0.013220 0.419388
vt 0.025264 0.419388
vt 0.001176 0.419388
vt 0.037307 0.419388
vt 0.974737 0.503031
vt 0.974737 0.586673
vt 0.962693 0.586673
vt 0.962693 0.503031
vt 0.974737 0.670315
vt 0.962693 0.670315
vt 0.962693 0.419388
vt 0.974737 0.419388
vt 0.986780 0.419388
vt 0.986780 0.503031
vt 0.998824 0.419388
vt 0.998824 0.503031
vt 0.986780 0.586673
vt 0.986780 0.670315
vt 0.998824 0.586673
vt 0.998824 0.670315
vn 1.000000 0.000000 0.000000
vn 0.707100 0.707100 0.000000
vn -1.000000 0.000000 0.000000
vn -0.707100 0.707100 0.000000
vn 0.000000 1.000000 0.000000
usemtl None
s 1
f 1/1/1 5/2/1 6/3/1 2/4/1
f 2/4/1 6/3/1 94/5/2 95/6/2
f 5/2/1 170/7/1 169/8/1 6/3/1
f 6/3/1 169/8/1 185/9/2 94/5/2
f 1/1/1 2/4/1 7/10/1 3/11/1
f 3/11/1 7/10/1 100/12/1 101/13/1
f 2/4/1 95/6/2 96/14/2 7/10/1
f 7/10/1 96/14/2 175/15/2 100/12/1
f 1/1/1 3/11/1 8/16/1 4/17/1
f 4/17/1 8/16/1 93/18/1 92/19/1
f 3/11/1 101/13/1 102/20/1 8/16/1
f 8/16/1 102/20/1 172/21/1 93/18/1
f 1/1/1 4/17/1 9/22/1 5/2/1
f 5/2/1 9/22/1 171/23/1 170/7/1
f 4/17/1 92/19/1 91/24/1 9/22/1
f 9/22/1 91/24/1 184/25/1 171/23/1
f 10/26/3 14/27/3 15/28/3 11/29/3
f 11/29/3 15/28/3 168/30/3 167/31/3
f 14/27/3 107/32/4 106/33/4 15/28/3
f 15/28/3 106/33/4 187/34/4 168/30/3
f 10/26/3 11/29/3 16/35/3 12/36/3
f 12/36/3 16/35/3 103/37/3 104/38/3
f 11/29/3 167/31/3 166/39/3 16/35/3
f 16/35/3 166/39/3 186/40/3 103/37/3
f 10/26/3 12/36/3 17/41/3 13/42/3
f 13/42/3 17/41/3 114/43/3 113/44/3
f 12/36/3 104/38/3 105/45/3 17/41/3
f 17/41/3 105/45/3 176/46/3 114/43/3
f 10/26/3 13/42/3 18/47/3 14/27/3
f 14/27/3 18/47/3 108/48/4 107/32/4
f 13/42/3 113/44/3 112/49/3 18/47/3
f 18/47/3 112/49/3 179/50/4 108/48/4
f 19/51/5 23/52/5 24/53/5 20/54/5
f 20/54/5 24/53/5 165/55/5 164/56/5
f 23/52/5 137/57/5 136/58/5 24/53/5
f 24/53/5 136/58/5 189/59/5 165/55/5
f 19/51/5 20/54/5 25/60/5 21/61/5
f 21/61/5 25/60/5 144/62/2 143/63/2
f 20/54/5 164/56/5 163/64/5 25/60/5
f 25/60/5 163/64/5 185/9/2 144/62/2
f 19/51/5 21/61/5 26/65/5 22/66/5
f 22/66/5 26/65/5 120/67/5 119/68/5
f 21/61/5 143/63/2 142/69/2 26/65/5
f 26/65/5 142/69/2 174/70/2 120/67/5
f 19/51/5 22/66/5 27/71/5 23/52/5
f 23/52/5 27/71/5 138/72/5 137/57/5
f 22/66/5 119/68/5 118/73/5 27/71/5
f 27/71/5 118/73/5 183/74/5 138/72/5
f 28/75/5 32/76/5 33/77/5 29/78/5
f 29/78/5 33/77/5 162/79/5 161/80/5
f 32/76/5 149/81/4 150/82/4 33/77/5
f 33/77/5 150/82/4 187/34/4 162/79/5
f 28/75/5 29/78/5 34/83/5 30/84/5
f 30/84/5 34/83/5 133/85/5 134/86/5
f 29/78/5 161/80/5 160/87/5 34/83/5
f 34/83/5 160/87/5 188/88/5 133/85/5
f 28/75/5 30/84/5 35/89/5 31/90/5
f 31/90/5 35/89/5 129/91/5 128/92/5
f 30/84/5 134/86/5 135/93/5 35/89/5
f 35/89/5 135/93/5 182/94/5 129/91/5
f 28/75/5 31/90/5 36/95/5 32/76/5
f 32/76/5 36/95/5 148/96/4 149/81/4
f 31/90/5 128/92/5 127/97/5 36/95/5
f 36/95/5 127/97/5 178/98/4 148/96/4
f 37/99/5 41/100/5 42/101/5 38/102/5
f 38/102/5 42/101/5 159/103/5 158/104/5
f 41/100/5 134/86/5 133/85/5 42/101/5
f 42/101/5 133/85/5 188/88/5 159/103/5
f 37/99/5 38/102/5 43/105/5 39/106/5
f 39/106/5 43/105/5 136/58/5 137/57/5
f 38/102/5 158/104/5 157/107/5 43/105/5
f 43/105/5 157/107/5 189/59/5 136/58/5
f 37/99/5 39/106/5 44/108/5 40/109/5
f 40/109/5 44/108/5 132/110/5 131/111/5
f 39/106/5 137/57/5 138/72/5 44/108/5
f 44/108/5 138/72/5 183/74/5 132/110/5
f 37/99/5 40/109/5 45/112/5 41/100/5
f 41/100/5 45/112/5 135/93/5 134/86/5
f 40/109/5 131/111/5 130/113/5 45/112/5
f 45/112/5 130/113/5 182/94/5 135/93/5
f 46/114/5 50/115/5 51/116/5 47/117/5
f 47/117/5 51/116/5 124/118/5 125/119/5
f 50/115/5 152/120/5 151/121/5 51/116/5
f 51/116/5 151/121/5 180/122/5 124/118/5
f 46/114/5 47/117/5 52/123/5 48/124/5
f 48/124/5 52/123/5 154/125/5 155/126/5
f 47/117/5 125/119/5 126/127/5 52/123/5
f 52/123/5 126/127/5 181/128/5 154/125/5
f 46/114/5 48/124/5 53/129/5 49/130/5
f 49/130/5 53/129/5 157/107/5 158/104/5
f 48/124/5 155/126/5 156/131/5 53/129/5
f 53/129/5 156/131/5 189/59/5 157/107/5
f 46/114/5 49/130/5 54/132/5 50/115/5
f 50/115/5 54/132/5 153/133/5 152/120/5
f 49/130/5 158/104/5 159/103/5 54/132/5
f 54/132/5 159/103/5 188/88/5 153/133/5
f 55/134/5 59/135/5 60/136/5 56/137/5
f 56/137/5 60/136/5 121/138/5 122/139/5
f 59/135/5 107/32/4 108/48/4 60/136/5
f 60/136/5 108/48/4 179/50/4 121/138/5
f 55/134/5 56/137/5 61/140/5 57/141/5
f 57/141/5 61/140/5 151/121/5 152/120/5
f 56/137/5 122/139/5 123/142/5 61/140/5
f 61/140/5 123/142/5 180/122/5 151/121/5
f 55/134/5 57/141/5 62/143/5 58/144/5
f 58/144/5 62/143/5 160/87/5 161/80/5
f 57/141/5 152/120/5 153/133/5 62/143/5
f 62/143/5 153/133/5 188/88/5 160/87/5
f 55/134/5 58/144/5 63/145/5 59/135/5
f 59/135/5 63/145/5 106/33/4 107/32/4
f 58/144/5 161/80/5 162/79/5 63/145/5
f 63/145/5 162/79/5 187/34/4 106/33/4
f 64/146/5 68/147/5 69/148/5 65/149/5
f 65/149/5 69/148/5 115/150/5 116/151/5
f 68/147/5 155/126/5 154/125/5 69/148/5
f 69/148/5 154/125/5 181/128/5 115/150/5
f 64/146/5 65/149/5 70/152/5 66/153/5
f 66/153/5 70/152/5 96/14/2 95/6/2
f 65/149/5 116/151/5 117/154/5 70/152/5
f 70/152/5 117/154/5 175/15/2 96/14/2
f 64/146/5 66/153/5 71/155/5 67/156/5
f 67/156/5 71/155/5 163/64/5 164/56/5
f 66/153/5 95/6/2 94/5/2 71/155/5
f 71/155/5 94/5/2 185/9/2 163/64/5
f 64/146/5 67/156/5 72/157/5 68/147/5
f 68/147/5 72/157/5 156/131/5 155/126/5
f 67/156/5 164/56/5 165/55/5 72/157/5
f 72/157/5 165/55/5 189/59/5 156/131/5
f 73/158/3 77/159/3 78/160/3 74/161/3
f 74/161/3 78/160/3 111/162/3 110/163/3
f 77/159/3 149/81/4 148/96/4 78/160/3
f 78/160/3 148/96/4 178/98/4 111/162/3
f 73/158/3 74/161/3 79/164/3 75/165/3
f 75/165/3 79/164/3 145/166/3 146/167/3
f 74/161/3 110/163/3 109/168/3 79/164/3
f 79/164/3 109/168/3 177/169/3 145/166/3
f 73/158/3 75/165/3 80/170/3 76/171/3
f 76/171/3 80/170/3 166/39/3 167/31/3
f 75/165/3 146/167/3 147/172/3 80/170/3
f 80/170/3 147/172/3 186/40/3 166/39/3
f 73/158/3 76/171/3 81/173/3 77/159/3
f 77/159/3 81/173/3 150/82/4 149/81/4
f 76/171/3 167/31/3 168/30/3 81/173/3
f 81/173/3 168/30/3 187/34/4 150/82/4
f 82/174/1 86/175/1 87/176/1 83/177/1
f 83/177/1 87/176/1 142/69/2 143/63/2
f 86/175/1 98/178/1 99/179/1 87/176/1
f 87/176/1 99/179/1 174/70/2 142/69/2
f 82/174/1 83/177/1 88/180/1 84/181/1
f 84/181/1 88/180/1 169/8/1 170/7/1
f 83/177/1 143/63/2 144/62/2 88/180/1
f 88/180/1 144/62/2 185/9/2 169/8/1
f 82/174/1 84/181/1 89/182/1 85/183/1
f 85/183/1 89/182/1 141/184/1 140/185/1
f 84/181/1 170/7/1 171/23/1 89/182/1
f 89/182/1 171/23/1 184/25/1 141/184/1
f 82/174/1 85/183/1 90/186/1 86/175/1
f 86/175/1 90/186/1 97/187/1 98/178/1
f 85/183/1 140/185/1 139/188/1 90/186/1
f 90/186/1 139/188/1 173/189/1 97/187/1
f 190/1/3 191/17/3 195/22/3 194/2/3
f 191/17/3 230/19/3 229/24/3 195/22/3
f 194/2/3 195/22/3 265/23/3 266/7/3
f 195/22/3 229/24/3 277/25/3 265/23/3
f 190/1/3 192/11/3 196/16/3 191/17/3
f 192/11/3 236/13/3 235/20/3 196/16/3
f 191/17/3 196/16/3 231/18/3 230/19/3
f 196/16/3 235/20/3 271/21/3 231/18/3
f 190/1/3 193/4/3 197/10/3 192/11/3
f 193/4/3 227/6/3 228/14/3 197/10/3
f 192/11/3 197/10/3 237/12/3 236/13/3
f 197/10/3 228/14/3 268/15/3 237/12/3
f 190/1/3 194/2/3 198/3/3 193/4/3
f 194/2/3 266/7/3 267/8/3 198/3/3
f 193/4/3 198/3/3 226/5/3 227/6/3
f 198/3/3 267/8/3 276/9/3 226/5/3
f 199/26/1 200/29/1 204/35/1 203/36/1
f 200/29/1 263/31/1 264/39/1 204/35/1
f 203/36/1 204/35/1 241/37/1 242/38/1
f 204/35/1 264/39/1 279/40/1 241/37/1
f 199/26/1 201/27/1 205/28/1 200/29/1
f 201/27/1 239/32/1 238/33/1 205/28/1
f 200/29/1 205/28/1 262/30/1 263/31/1
f 205/28/1 238/33/1 278/34/1 262/30/1
f 199/26/1 202/42/1 206/47/1 201/27/1
f 202/42/1 248/44/1 249/49/1 206/47/1
f 201/27/1 206/47/1 240/48/1 239/32/1
f 206/47/1 249/49/1 272/50/1 240/48/1
f 199/26/1 203/36/1 207/41/1 202/42/1
f 203/36/1 242/38/1 243/45/1 207/41/1
f 202/42/1 207/41/1 247/43/1 248/44/1
f 207/41/1 243/45/1 275/46/1 247/43/1
f 208/158/1 209/161/1 213/164/1 212/165/1
f 209/161/1 245/163/1 246/168/1 213/164/1
f 212/165/1 213/164/1 259/166/1 260/167/1
f 213/164/1 246/168/1 274/169/1 259/166/1
f 208/158/1 210/159/1 214/160/1 209/161/1
f 210/159/1 257/81/1 256/96/1 214/160/1
f 209/161/1 214/160/1 244/162/1 245/163/1
f 214/160/1 256/96/1 273/98/1 244/162/1
f 208/158/1 211/171/1 215/173/1 210/159/1
f 211/171/1 263/31/1 262/30/1 215/173/1
f 210/159/1 215/173/1 258/82/1 257/81/1
f 215/173/1 262/30/1 278/34/1 258/82/1
f 208/158/1 212/165/1 216/170/1 211/171/1
f 212/165/1 260/167/1 261/172/1 216/170/1
f 211/171/1 216/170/1 264/39/1 263/31/1
f 216/170/1 261/172/1 279/40/1 264/39/1
f 217/174/3 218/183/3 222/186/3 221/175/3
f 218/183/3 254/185/3 253/188/3 222/186/3
f 221/175/3 222/186/3 234/187/3 233/178/3
f 222/186/3 253/188/3 270/189/3 234/187/3
f 217/174/3 219/181/3 223/182/3 218/183/3
f 219/181/3 266/7/3 265/23/3 223/182/3
f 218/183/3 223/182/3 255/184/3 254/185/3
f 223/182/3 265/23/3 277/25/3 255/184/3
f 217/174/3 220/177/3 224/180/3 219/181/3
f 220/177/3 251/63/3 252/62/3 224/180/3
f 219/181/3 224/180/3 267/8/3 266/7/3
f 224/180/3 252/62/3 276/9/3 267/8/3
f 217/174/3 221/175/3 225/176/3 220/177/3
f 221/175/3 233/178/3 232/179/3 225/176/3
f 220/177/3 225/176/3 250/69/3 251/63/3
f 225/176/3 232/179/3 269/70/3 250/69/3
