# Blender v2.75 (sub 0) OBJ File: 'Table.blend'
# www.blender.org
mtllib Cloth_Long.mtl
o Cube.013_Cube.004
v 6.991229 0.630359 1.481647
v 6.991229 0.737029 1.481647
v 6.991229 0.630359 2.222471
v 6.991229 0.523688 1.481647
v 6.991229 0.630359 0.740824
v 6.991229 0.737029 0.740824
v 6.991229 0.737029 2.222471
v 6.991229 0.523688 2.222471
v 6.991229 0.523688 0.740824
v -6.991229 0.630359 1.481647
v -6.991229 0.630359 0.740824
v -6.991229 0.523688 1.481647
v -6.991229 0.630359 2.222471
v -6.991229 0.737029 1.481647
v -6.991229 0.737029 0.740824
v -6.991229 0.523688 0.740824
v -6.991229 0.523688 2.222471
v -6.991229 0.737029 2.222471
v 4.660819 0.843699 -1.481647
v 4.660819 0.843699 -0.740824
v 5.826024 0.843699 -1.481647
v 4.660819 0.843699 -2.222471
v 3.495614 0.843699 -1.481647
v 3.495614 0.843699 -0.740824
v 5.826024 0.843699 -0.740824
v 5.826024 0.843699 -2.222471
v 3.495614 0.843699 -2.222471
v -4.660819 0.843699 -1.481647
v -4.660819 0.843699 -0.740824
v -3.495614 0.843699 -1.481647
v -4.660819 0.843699 -2.222471
v -5.826024 0.843699 -1.481647
v -5.826024 0.843699 -0.740824
v -3.495614 0.843699 -0.740824
v -3.495614 0.843699 -2.222471
v -5.826024 0.843699 -2.222471
v 0.000000 0.843699 -1.481647
v 0.000000 0.843699 -0.740824
v 1.165205 0.843699 -1.481647
v 0.000000 0.843699 -2.222471
v -1.165205 0.843699 -1.481647
v -1.165205 0.843699 -0.740824
v 1.165205 0.843699 -0.740824
v 1.165205 0.843699 -2.222471
v -1.165205 0.843699 -2.222471
v 0.000000 0.843699 1.481647
v 0.000000 0.843699 2.222471
v 1.165205 0.843699 1.481647
v 0.000000 0.843699 0.740824
v -1.165205 0.843699 1.481647
v -1.165205 0.843699 2.222471
v 1.165205 0.843699 2.222471
v 1.165205 0.843699 0.740824
v -1.165205 0.843699 0.740824
v -4.660819 0.843699 1.481647
v -4.660819 0.843699 2.222471
v -3.495614 0.843699 1.481647
v -4.660819 0.843699 0.740824
v -5.826024 0.843699 1.481647
v -5.826024 0.843699 2.222471
v -3.495614 0.843699 2.222471
v -3.495614 0.843699 0.740824
v -5.826024 0.843699 0.740824
v 4.660819 0.843699 1.481647
v 4.660819 0.843699 2.222471
v 5.826024 0.843699 1.481647
v 4.660819 0.843699 0.740824
v 3.495614 0.843699 1.481647
v 3.495614 0.843699 2.222471
v 5.826024 0.843699 2.222471
v 5.826024 0.843699 0.740824
v 3.495614 0.843699 0.740824
v -6.991229 0.630359 -1.481647
v -6.991229 0.630359 -2.222471
v -6.991229 0.523688 -1.481647
v -6.991229 0.630359 -0.740824
v -6.991229 0.737029 -1.481647
v -6.991229 0.737029 -2.222471
v -6.991229 0.523688 -2.222471
v -6.991229 0.523688 -0.740824
v -6.991229 0.737029 -0.740824
v 6.991229 0.630359 -1.481647
v 6.991229 0.737029 -1.481647
v 6.991229 0.630359 -0.740824
v 6.991229 0.523688 -1.481647
v 6.991229 0.630359 -2.222471
v 6.991229 0.737029 -2.222471
v 6.991229 0.737029 -0.740824
v 6.991229 0.523688 -0.740824
v 6.991229 0.523688 -2.222471
v 6.991229 0.417018 0.740824
v 6.991229 0.417018 1.481647
v 6.991229 0.417018 2.222471
v 6.991229 0.843699 0.740824
v 6.991229 0.843699 1.481647
v 6.991229 0.843699 2.222471
v 6.991229 0.523688 -2.963295
v 6.991229 0.630359 -2.963295
v 6.991229 0.737029 -2.963295
v 6.991229 0.737029 2.963295
v 6.991229 0.630359 2.963295
v 6.991229 0.523688 2.963295
v -6.991229 0.417018 0.740824
v -6.991229 0.417018 1.481647
v -6.991229 0.417018 2.222471
v -6.991229 0.843699 0.740824
v -6.991229 0.843699 1.481647
v -6.991229 0.843699 2.222471
v -6.991229 0.523688 -2.963295
v -6.991229 0.630359 -2.963295
v -6.991229 0.737029 -2.963295
v -6.991229 0.737029 2.963295
v -6.991229 0.630359 2.963295
v -6.991229 0.523688 2.963295
v 3.495614 0.843699 2.963295
v 4.660819 0.843699 2.963295
v 5.826024 0.843699 2.963295
v 3.495614 0.843699 -2.963295
v 4.660819 0.843699 -2.963295
v 5.826024 0.843699 -2.963295
v -5.826024 0.843699 2.963295
v -4.660819 0.843699 2.963295
v -3.495614 0.843699 2.963295
v -1.165205 0.843699 2.963295
v 0.000000 0.843699 2.963295
v 1.165205 0.843699 2.963295
v -5.826024 0.843699 -2.963295
v -4.660819 0.843699 -2.963295
v -3.495614 0.843699 -2.963295
v -1.165205 0.843699 -2.963295
v 0.000000 0.843699 -2.963295
v 1.165205 0.843699 -2.963295
v -2.330409 0.843699 -0.740824
v -2.330409 0.843699 -1.481647
v -2.330409 0.843699 -2.222471
v 2.330409 0.843699 -0.740824
v 2.330409 0.843699 -1.481647
v 2.330409 0.843699 -2.222471
v 6.991229 0.417018 -2.222471
v 6.991229 0.417018 -1.481647
v 6.991229 0.417018 -0.740824
v 6.991229 0.843699 -2.222471
v 6.991229 0.843699 -1.481647
v 6.991229 0.843699 -0.740824
v -6.991229 0.417018 -2.222471
v -6.991229 0.417018 -1.481647
v -6.991229 0.417018 -0.740824
v -6.991229 0.843699 -2.222471
v -6.991229 0.843699 -1.481647
v -6.991229 0.843699 -0.740824
v -2.330409 0.843699 2.222471
v -2.330409 0.843699 1.481647
v -2.330409 0.843699 0.740824
v 2.330409 0.843699 2.222471
v 2.330409 0.843699 1.481647
v 2.330409 0.843699 0.740824
v 1.165205 0.843699 -0.000000
v 0.000000 0.843699 -0.000000
v -1.165205 0.843699 -0.000000
v -3.495614 0.843699 -0.000000
v -4.660819 0.843699 -0.000000
v -5.826024 0.843699 -0.000000
v 5.826024 0.843699 -0.000000
v 4.660819 0.843699 -0.000000
v 3.495614 0.843699 -0.000000
v -6.991229 0.523688 -0.000000
v -6.991229 0.630359 -0.000000
v -6.991229 0.737029 -0.000000
v 6.991229 0.737029 -0.000000
v 6.991229 0.630359 -0.000000
v 6.991229 0.523688 -0.000000
v 6.991229 0.417018 2.963295
v 6.991229 0.417018 -2.963295
v 6.991229 0.843699 -2.963295
v 6.991229 0.843699 2.963295
v -6.991229 0.417018 2.963295
v -6.991229 0.417018 -2.963295
v -6.991229 0.843699 -2.963295
v -6.991229 0.843699 2.963295
v -2.330409 0.843699 2.963295
v 2.330409 0.843699 2.963295
v -2.330409 0.843699 -2.963295
v 2.330409 0.843699 -2.963295
v 6.991229 0.417018 -0.000000
v 6.991229 0.843699 -0.000000
v -6.991229 0.417018 -0.000000
v -6.991229 0.843699 -0.000000
v -2.330409 0.843699 -0.000000
v 2.330409 0.843699 -0.000000
v 6.991229 0.630359 1.481647
v 6.991229 0.737029 1.481647
v 6.991229 0.630359 2.222471
v 6.991229 0.523688 1.481647
v 6.991229 0.630359 0.740824
v 6.991229 0.737029 0.740824
v 6.991229 0.737029 2.222471
v 6.991229 0.523688 2.222471
v 6.991229 0.523688 0.740824
v -6.991229 0.630359 1.481647
v -6.991229 0.630359 0.740824
v -6.991229 0.523688 1.481647
v -6.991229 0.630359 2.222471
v -6.991229 0.737029 1.481647
v -6.991229 0.737029 0.740824
v -6.991229 0.523688 0.740824
v -6.991229 0.523688 2.222471
v -6.991229 0.737029 2.222471
v -6.991229 0.630359 -1.481647
v -6.991229 0.630359 -2.222471
v -6.991229 0.523688 -1.481647
v -6.991229 0.630359 -0.740824
v -6.991229 0.737029 -1.481647
v -6.991229 0.737029 -2.222471
v -6.991229 0.523688 -2.222471
v -6.991229 0.523688 -0.740824
v -6.991229 0.737029 -0.740824
v 6.991229 0.630359 -1.481647
v 6.991229 0.737029 -1.481647
v 6.991229 0.630359 -0.740824
v 6.991229 0.523688 -1.481647
v 6.991229 0.630359 -2.222471
v 6.991229 0.737029 -2.222471
v 6.991229 0.737029 -0.740824
v 6.991229 0.523688 -0.740824
v 6.991229 0.523688 -2.222471
v 6.991229 0.417018 0.740824
v 6.991229 0.417018 1.481647
v 6.991229 0.417018 2.222471
v 6.991229 0.843699 0.740824
v 6.991229 0.843699 1.481647
v 6.991229 0.843699 2.222471
v 6.991229 0.523688 -2.963295
v 6.991229 0.630359 -2.963295
v 6.991229 0.737029 -2.963295
v 6.991229 0.737029 2.963295
v 6.991229 0.630359 2.963295
v 6.991229 0.523688 2.963295
v -6.991229 0.417018 0.740824
v -6.991229 0.417018 1.481647
v -6.991229 0.417018 2.222471
v -6.991229 0.843699 0.740824
v -6.991229 0.843699 1.481647
v -6.991229 0.843699 2.222471
v -6.991229 0.523688 -2.963295
v -6.991229 0.630359 -2.963295
v -6.991229 0.737029 -2.963295
v -6.991229 0.737029 2.963295
v -6.991229 0.630359 2.963295
v -6.991229 0.523688 2.963295
v 6.991229 0.417018 -2.222471
v 6.991229 0.417018 -1.481647
v 6.991229 0.417018 -0.740824
v 6.991229 0.843699 -2.222471
v 6.991229 0.843699 -1.481647
v 6.991229 0.843699 -0.740824
v -6.991229 0.417018 -2.222471
v -6.991229 0.417018 -1.481647
v -6.991229 0.417018 -0.740824
v -6.991229 0.843699 -2.222471
v -6.991229 0.843699 -1.481647
v -6.991229 0.843699 -0.740824
v -6.991229 0.523688 -0.000000
v -6.991229 0.630359 -0.000000
v -6.991229 0.737029 -0.000000
v 6.991229 0.737029 -0.000000
v 6.991229 0.630359 -0.000000
v 6.991229 0.523688 -0.000000
v 6.991229 0.417018 2.963295
v 6.991229 0.417018 -2.963295
v 6.991229 0.843699 -2.963295
v 6.991229 0.843699 2.963295
v -6.991229 0.417018 2.963295
v -6.991229 0.417018 -2.963295
v -6.991229 0.843699 -2.963295
v -6.991229 0.843699 2.963295
v 6.991229 0.417018 -0.000000
v 6.991229 0.843699 -0.000000
v -6.991229 0.417018 -0.000000
v -6.991229 0.843699 -0.000000
vt 0.984799 0.100546
vt 0.984799 0.150396
vt 0.977621 0.150396
vt 0.977621 0.100546
vt 0.970443 0.150396
vt 0.970443 0.100546
vt 0.984799 0.200247
vt 0.977621 0.200247
vt 0.970443 0.200247
vt 0.977621 0.050695
vt 0.984799 0.050695
vt 0.977621 0.000845
vt 0.984799 0.000845
vt 0.970443 0.050695
vt 0.970443 0.000845
vt 0.991977 0.050695
vt 0.991977 0.100546
vt 0.999155 0.050695
vt 0.999155 0.100546
vt 0.991977 0.000845
vt 0.999155 0.000845
vt 0.991977 0.150396
vt 0.991977 0.200247
vt 0.999155 0.150396
vt 0.999155 0.200247
vt 0.015201 0.100546
vt 0.022379 0.100546
vt 0.022379 0.150397
vt 0.015201 0.150397
vt 0.022379 0.200247
vt 0.015201 0.200247
vt 0.029557 0.100546
vt 0.029557 0.150397
vt 0.029557 0.200247
vt 0.008023 0.150397
vt 0.008023 0.100546
vt 0.000845 0.150397
vt 0.000845 0.100546
vt 0.008023 0.200247
vt 0.000845 0.200247
vt 0.008023 0.050696
vt 0.015201 0.050696
vt 0.008023 0.000845
vt 0.015201 0.000845
vt 0.000845 0.050696
vt 0.000845 0.000845
vt 0.022379 0.050696
vt 0.029557 0.050696
vt 0.022379 0.000845
vt 0.029557 0.000845
vt 0.813629 0.299947
vt 0.735222 0.299948
vt 0.735222 0.250097
vt 0.813629 0.250097
vt 0.735222 0.200247
vt 0.813629 0.200247
vt 0.656815 0.299948
vt 0.656815 0.250097
vt 0.656814 0.200247
vt 0.892036 0.250097
vt 0.892036 0.299947
vt 0.970443 0.250097
vt 0.970443 0.299947
vt 0.892036 0.200247
vt 0.892036 0.349798
vt 0.813629 0.349798
vt 0.892036 0.399648
vt 0.813629 0.399648
vt 0.970443 0.349798
vt 0.970443 0.399648
vt 0.735222 0.349798
vt 0.656815 0.349798
vt 0.735222 0.399648
vt 0.656815 0.399648
vt 0.186371 0.299948
vt 0.107964 0.299948
vt 0.107964 0.250097
vt 0.186371 0.250097
vt 0.107964 0.200247
vt 0.186371 0.200247
vt 0.029557 0.299948
vt 0.029557 0.250097
vt 0.264778 0.250097
vt 0.264778 0.299948
vt 0.343186 0.250097
vt 0.343186 0.299948
vt 0.264778 0.200247
vt 0.343186 0.200247
vt 0.264778 0.349798
vt 0.186371 0.349798
vt 0.264778 0.399649
vt 0.186371 0.399649
vt 0.343186 0.349798
vt 0.343186 0.399649
vt 0.107964 0.349798
vt 0.029557 0.349798
vt 0.107964 0.399649
vt 0.029557 0.399649
vt 0.500000 0.299948
vt 0.421593 0.299948
vt 0.421593 0.250097
vt 0.500000 0.250097
vt 0.421593 0.200247
vt 0.500000 0.200247
vt 0.578407 0.250097
vt 0.578407 0.299948
vt 0.578407 0.200247
vt 0.578407 0.349798
vt 0.500000 0.349798
vt 0.578407 0.399648
vt 0.500000 0.399648
vt 0.421593 0.349798
vt 0.421593 0.399649
vt 0.500000 0.100546
vt 0.421593 0.100546
vt 0.421593 0.050696
vt 0.500000 0.050696
vt 0.421593 0.000845
vt 0.500000 0.000845
vt 0.343186 0.100546
vt 0.343186 0.050696
vt 0.343186 0.000845
vt 0.578407 0.050695
vt 0.578407 0.100546
vt 0.656814 0.050695
vt 0.656814 0.100546
vt 0.578407 0.000845
vt 0.656814 0.000845
vt 0.578407 0.150396
vt 0.500000 0.150396
vt 0.656814 0.150396
vt 0.421593 0.150396
vt 0.343186 0.150396
vt 0.186371 0.100546
vt 0.107964 0.100546
vt 0.107964 0.050696
vt 0.186371 0.050696
vt 0.107964 0.000845
vt 0.186371 0.000845
vt 0.264778 0.050696
vt 0.264778 0.100546
vt 0.264778 0.000845
vt 0.264778 0.150396
vt 0.186371 0.150397
vt 0.107964 0.150397
vt 0.813629 0.100546
vt 0.735222 0.100546
vt 0.735222 0.050695
vt 0.813629 0.050695
vt 0.735222 0.000845
vt 0.813629 0.000845
vt 0.892036 0.050695
vt 0.892036 0.100546
vt 0.892036 0.000845
vt 0.892036 0.150396
vt 0.813629 0.150396
vt 0.735222 0.150396
vt 0.015201 0.299948
vt 0.022379 0.299948
vt 0.022379 0.349798
vt 0.015201 0.349798
vt 0.022379 0.399649
vt 0.015201 0.399649
vt 0.008023 0.349798
vt 0.008023 0.299948
vt 0.000845 0.349798
vt 0.000845 0.299948
vt 0.008023 0.399649
vt 0.000845 0.399649
vt 0.008023 0.250097
vt 0.015201 0.250097
vt 0.000845 0.250097
vt 0.022379 0.250097
vt 0.984799 0.299947
vt 0.984799 0.349798
vt 0.977621 0.349798
vt 0.977621 0.299947
vt 0.984799 0.399648
vt 0.977621 0.399648
vt 0.977621 0.250097
vt 0.984799 0.250097
vt 0.991977 0.250097
vt 0.991977 0.299947
vt 0.999155 0.250097
vt 0.999155 0.299947
vt 0.991977 0.349798
vt 0.991977 0.399648
vt 0.999155 0.349798
vt 0.999155 0.399648
vt 0.100546 0.446096
vt 0.100546 0.438918
vt 0.150396 0.438918
vt 0.150396 0.446096
vt 0.100546 0.431740
vt 0.150396 0.431740
vt 0.200246 0.438918
vt 0.200246 0.446096
vt 0.200246 0.431740
vt 0.050695 0.446096
vt 0.050695 0.438918
vt 0.000845 0.446096
vt 0.000845 0.438918
vt 0.050695 0.431740
vt 0.000845 0.431740
vt 0.100546 0.453274
vt 0.050695 0.453274
vt 0.100546 0.460452
vt 0.050695 0.460452
vt 0.000845 0.453274
vt 0.000845 0.460452
vt 0.150396 0.453274
vt 0.200246 0.453274
vt 0.150396 0.460452
vt 0.200246 0.460452
vt 0.100546 0.415695
vt 0.150396 0.415695
vt 0.150396 0.422872
vt 0.100546 0.422872
vt 0.200246 0.415694
vt 0.200246 0.422872
vt 0.150396 0.430050
vt 0.100546 0.430050
vt 0.200246 0.430050
vt 0.100546 0.408517
vt 0.150396 0.408517
vt 0.100546 0.401339
vt 0.150396 0.401339
vt 0.200246 0.408517
vt 0.200246 0.401339
vt 0.050695 0.415695
vt 0.050695 0.408517
vt 0.000845 0.415695
vt 0.000845 0.408517
vt 0.050695 0.401339
vt 0.000845 0.401339
vt 0.050695 0.422872
vt 0.050695 0.430050
vt 0.000845 0.422872
vt 0.000845 0.430050
vt 0.299947 0.415694
vt 0.349797 0.415694
vt 0.349797 0.422872
vt 0.299947 0.422872
vt 0.399648 0.415694
vt 0.399648 0.422872
vt 0.349797 0.430050
vt 0.299947 0.430050
vt 0.399648 0.430050
vt 0.299947 0.408517
vt 0.349797 0.408517
vt 0.299947 0.401339
vt 0.349797 0.401339
vt 0.399648 0.408517
vt 0.399648 0.401339
vt 0.250097 0.415694
vt 0.250097 0.408517
vt 0.250097 0.401339
vt 0.250097 0.422872
vt 0.250097 0.430050
vt 0.299947 0.446096
vt 0.299947 0.438918
vt 0.349797 0.438918
vt 0.349797 0.446096
vt 0.299947 0.431740
vt 0.349797 0.431740
vt 0.399648 0.438918
vt 0.399648 0.446096
vt 0.399648 0.431740
vt 0.250097 0.446096
vt 0.250097 0.438918
vt 0.250097 0.431740
vt 0.299947 0.453274
vt 0.250097 0.453274
vt 0.299947 0.460452
vt 0.250097 0.460452
vt 0.349797 0.453274
vt 0.399648 0.453274
vt 0.349797 0.460452
vt 0.399648 0.460452
vn 1.000000 0.000000 0.000000
vn 0.707100 0.707100 0.000000
vn -1.000000 0.000000 0.000000
vn -0.707100 0.707100 0.000000
vn 0.000000 1.000000 0.000000
usemtl None
s 1
f 1/1/1 5/2/1 6/3/1 2/4/1
f 2/4/1 6/3/1 94/5/2 95/6/2
f 5/2/1 170/7/1 169/8/1 6/3/1
f 6/3/1 169/8/1 185/9/2 94/5/2
f 1/1/1 2/4/1 7/10/1 3/11/1
f 3/11/1 7/10/1 100/12/1 101/13/1
f 2/4/1 95/6/2 96/14/2 7/10/1
f 7/10/1 96/14/2 175/15/2 100/12/1
f 1/1/1 3/11/1 8/16/1 4/17/1
f 4/17/1 8/16/1 93/18/1 92/19/1
f 3/11/1 101/13/1 102/20/1 8/16/1
f 8/16/1 102/20/1 172/21/1 93/18/1
f 1/1/1 4/17/1 9/22/1 5/2/1
f 5/2/1 9/22/1 171/23/1 170/7/1
f 4/17/1 92/19/1 91/24/1 9/22/1
f 9/22/1 91/24/1 184/25/1 171/23/1
f 10/26/3 14/27/3 15/28/3 11/29/3
f 11/29/3 15/28/3 168/30/3 167/31/3
f 14/27/3 107/32/4 106/33/4 15/28/3
f 15/28/3 106/33/4 187/34/4 168/30/3
f 10/26/3 11/29/3 16/35/3 12/36/3
f 12/36/3 16/35/3 103/37/3 104/38/3
f 11/29/3 167/31/3 166/39/3 16/35/3
f 16/35/3 166/39/3 186/40/3 103/37/3
f 10/26/3 12/36/3 17/41/3 13/42/3
f 13/42/3 17/41/3 114/43/3 113/44/3
f 12/36/3 104/38/3 105/45/3 17/41/3
f 17/41/3 105/45/3 176/46/3 114/43/3
f 10/26/3 13/42/3 18/47/3 14/27/3
f 14/27/3 18/47/3 108/48/4 107/32/4
f 13/42/3 113/44/3 112/49/3 18/47/3
f 18/47/3 112/49/3 179/50/4 108/48/4
f 19/51/5 23/52/5 24/53/5 20/54/5
f 20/54/5 24/53/5 165/55/5 164/56/5
f 23/52/5 137/57/5 136/58/5 24/53/5
f 24/53/5 136/58/5 189/59/5 165/55/5
f 19/51/5 20/54/5 25/60/5 21/61/5
f 21/61/5 25/60/5 144/62/2 143/63/2
f 20/54/5 164/56/5 163/64/5 25/60/5
f 25/60/5 163/64/5 185/9/2 144/62/2
f 19/51/5 21/61/5 26/65/5 22/66/5
f 22/66/5 26/65/5 120/67/5 119/68/5
f 21/61/5 143/63/2 142/69/2 26/65/5
f 26/65/5 142/69/2 174/70/2 120/67/5
f 19/51/5 22/66/5 27/71/5 23/52/5
f 23/52/5 27/71/5 138/72/5 137/57/5
f 22/66/5 119/68/5 118/73/5 27/71/5
f 27/71/5 118/73/5 183/74/5 138/72/5
f 28/75/5 32/76/5 33/77/5 29/78/5
f 29/78/5 33/77/5 162/79/5 161/80/5
f 32/76/5 149/81/4 150/82/4 33/77/5
f 33/77/5 150/82/4 187/34/4 162/79/5
f 28/75/5 29/78/5 34/83/5 30/84/5
f 30/84/5 34/83/5 133/85/5 134/86/5
f 29/78/5 161/80/5 160/87/5 34/83/5
f 34/83/5 160/87/5 188/88/5 133/85/5
f 28/75/5 30/84/5 35/89/5 31/90/5
f 31/90/5 35/89/5 129/91/5 128/92/5
f 30/84/5 134/86/5 135/93/5 35/89/5
f 35/89/5 135/93/5 182/94/5 129/91/5
f 28/75/5 31/90/5 36/95/5 32/76/5
f 32/76/5 36/95/5 148/96/4 149/81/4
f 31/90/5 128/92/5 127/97/5 36/95/5
f 36/95/5 127/97/5 178/98/4 148/96/4
f 37/99/5 41/100/5 42/101/5 38/102/5
f 38/102/5 42/101/5 159/103/5 158/104/5
f 41/100/5 134/86/5 133/85/5 42/101/5
f 42/101/5 133/85/5 188/88/5 159/103/5
f 37/99/5 38/102/5 43/105/5 39/106/5
f 39/106/5 43/105/5 136/58/5 137/57/5
f 38/102/5 158/104/5 157/107/5 43/105/5
f 43/105/5 157/107/5 189/59/5 136/58/5
f 37/99/5 39/106/5 44/108/5 40/109/5
f 40/109/5 44/108/5 132/110/5 131/111/5
f 39/106/5 137/57/5 138/72/5 44/108/5
f 44/108/5 138/72/5 183/74/5 132/110/5
f 37/99/5 40/109/5 45/112/5 41/100/5
f 41/100/5 45/112/5 135/93/5 134/86/5
f 40/109/5 131/111/5 130/113/5 45/112/5
f 45/112/5 130/113/5 182/94/5 135/93/5
f 46/114/5 50/115/5 51/116/5 47/117/5
f 47/117/5 51/116/5 124/118/5 125/119/5
f 50/115/5 152/120/5 151/121/5 51/116/5
f 51/116/5 151/121/5 180/122/5 124/118/5
f 46/114/5 47/117/5 52/123/5 48/124/5
f 48/124/5 52/123/5 154/125/5 155/126/5
f 47/117/5 125/119/5 126/127/5 52/123/5
f 52/123/5 126/127/5 181/128/5 154/125/5
f 46/114/5 48/124/5 53/129/5 49/130/5
f 49/130/5 53/129/5 157/107/5 158/104/5
f 48/124/5 155/126/5 156/131/5 53/129/5
f 53/129/5 156/131/5 189/59/5 157/107/5
f 46/114/5 49/130/5 54/132/5 50/115/5
f 50/115/5 54/132/5 153/133/5 152/120/5
f 49/130/5 158/104/5 159/103/5 54/132/5
f 54/132/5 159/103/5 188/88/5 153/133/5
f 55/134/5 59/135/5 60/136/5 56/137/5
f 56/137/5 60/136/5 121/138/5 122/139/5
f 59/135/5 107/32/4 108/48/4 60/136/5
f 60/136/5 108/48/4 179/50/4 121/138/5
f 55/134/5 56/137/5 61/140/5 57/141/5
f 57/141/5 61/140/5 151/121/5 152/120/5
f 56/137/5 122/139/5 123/142/5 61/140/5
f 61/140/5 123/142/5 180/122/5 151/121/5
f 55/134/5 57/141/5 62/143/5 58/144/5
f 58/144/5 62/143/5 160/87/5 161/80/5
f 57/141/5 152/120/5 153/133/5 62/143/5
f 62/143/5 153/133/5 188/88/5 160/87/5
f 55/134/5 58/144/5 63/145/5 59/135/5
f 59/135/5 63/145/5 106/33/4 107/32/4
f 58/144/5 161/80/5 162/79/5 63/145/5
f 63/145/5 162/79/5 187/34/4 106/33/4
f 64/146/5 68/147/5 69/148/5 65/149/5
f 65/149/5 69/148/5 115/150/5 116/151/5
f 68/147/5 155/126/5 154/125/5 69/148/5
f 69/148/5 154/125/5 181/128/5 115/150/5
f 64/146/5 65/149/5 70/152/5 66/153/5
f 66/153/5 70/152/5 96/14/2 95/6/2
f 65/149/5 116/151/5 117/154/5 70/152/5
f 70/152/5 117/154/5 175/15/2 96/14/2
f 64/146/5 66/153/5 71/155/5 67/156/5
f 67/156/5 71/155/5 163/64/5 164/56/5
f 66/153/5 95/6/2 94/5/2 71/155/5
f 71/155/5 94/5/2 185/9/2 163/64/5
f 64/146/5 67/156/5 72/157/5 68/147/5
f 68/147/5 72/157/5 156/131/5 155/126/5
f 67/156/5 164/56/5 165/55/5 72/157/5
f 72/157/5 165/55/5 189/59/5 156/131/5
f 73/158/3 77/159/3 78/160/3 74/161/3
f 74/161/3 78/160/3 111/162/3 110/163/3
f 77/159/3 149/81/4 148/96/4 78/160/3
f 78/160/3 148/96/4 178/98/4 111/162/3
f 73/158/3 74/161/3 79/164/3 75/165/3
f 75/165/3 79/164/3 145/166/3 146/167/3
f 74/161/3 110/163/3 109/168/3 79/164/3
f 79/164/3 109/168/3 177/169/3 145/166/3
f 73/158/3 75/165/3 80/170/3 76/171/3
f 76/171/3 80/170/3 166/39/3 167/31/3
f 75/165/3 146/167/3 147/172/3 80/170/3
f 80/170/3 147/172/3 186/40/3 166/39/3
f 73/158/3 76/171/3 81/173/3 77/159/3
f 77/159/3 81/173/3 150/82/4 149/81/4
f 76/171/3 167/31/3 168/30/3 81/173/3
f 81/173/3 168/30/3 187/34/4 150/82/4
f 82/174/1 86/175/1 87/176/1 83/177/1
f 83/177/1 87/176/1 142/69/2 143/63/2
f 86/175/1 98/178/1 99/179/1 87/176/1
f 87/176/1 99/179/1 174/70/2 142/69/2
f 82/174/1 83/177/1 88/180/1 84/181/1
f 84/181/1 88/180/1 169/8/1 170/7/1
f 83/177/1 143/63/2 144/62/2 88/180/1
f 88/180/1 144/62/2 185/9/2 169/8/1
f 82/174/1 84/181/1 89/182/1 85/183/1
f 85/183/1 89/182/1 141/184/1 140/185/1
f 84/181/1 170/7/1 171/23/1 89/182/1
f 89/182/1 171/23/1 184/25/1 141/184/1
f 82/174/1 85/183/1 90/186/1 86/175/1
f 86/175/1 90/186/1 97/187/1 98/178/1
f 85/183/1 140/185/1 139/188/1 90/186/1
f 90/186/1 139/188/1 173/189/1 97/187/1
f 190/190/3 191/191/3 195/192/3 194/193/3
f 191/191/3 230/194/3 229/195/3 195/192/3
f 194/193/3 195/192/3 265/196/3 266/197/3
f 195/192/3 229/195/3 277/198/3 265/196/3
f 190/190/3 192/199/3 196/200/3 191/191/3
f 192/199/3 236/201/3 235/202/3 196/200/3
f 191/191/3 196/200/3 231/203/3 230/194/3
f 196/200/3 235/202/3 271/204/3 231/203/3
f 190/190/3 193/205/3 197/206/3 192/199/3
f 193/205/3 227/207/3 228/208/3 197/206/3
f 192/199/3 197/206/3 237/209/3 236/201/3
f 197/206/3 228/208/3 268/210/3 237/209/3
f 190/190/3 194/193/3 198/211/3 193/205/3
f 194/193/3 266/197/3 267/212/3 198/211/3
f 193/205/3 198/211/3 226/213/3 227/207/3
f 198/211/3 267/212/3 276/214/3 226/213/3
f 199/215/1 200/216/1 204/217/1 203/218/1
f 200/216/1 263/219/1 264/220/1 204/217/1
f 203/218/1 204/217/1 241/221/1 242/222/1
f 204/217/1 264/220/1 279/223/1 241/221/1
f 199/215/1 201/224/1 205/225/1 200/216/1
f 201/224/1 239/226/1 238/227/1 205/225/1
f 200/216/1 205/225/1 262/228/1 263/219/1
f 205/225/1 238/227/1 278/229/1 262/228/1
f 199/215/1 202/230/1 206/231/1 201/224/1
f 202/230/1 248/232/1 249/233/1 206/231/1
f 201/224/1 206/231/1 240/234/1 239/226/1
f 206/231/1 249/233/1 272/235/1 240/234/1
f 199/215/1 203/218/1 207/236/1 202/230/1
f 203/218/1 242/222/1 243/237/1 207/236/1
f 202/230/1 207/236/1 247/238/1 248/232/1
f 207/236/1 243/237/1 275/239/1 247/238/1
f 208/240/1 209/241/1 213/242/1 212/243/1
f 209/241/1 245/244/1 246/245/1 213/242/1
f 212/243/1 213/242/1 259/246/1 260/247/1
f 213/242/1 246/245/1 274/248/1 259/246/1
f 208/240/1 210/249/1 214/250/1 209/241/1
f 210/249/1 257/251/1 256/252/1 214/250/1
f 209/241/1 214/250/1 244/253/1 245/244/1
f 214/250/1 256/252/1 273/254/1 244/253/1
f 208/240/1 211/255/1 215/256/1 210/249/1
f 211/255/1 263/219/1 262/228/1 215/256/1
f 210/249/1 215/256/1 258/257/1 257/251/1
f 215/256/1 262/228/1 278/229/1 258/257/1
f 208/240/1 212/243/1 216/258/1 211/255/1
f 212/243/1 260/247/1 261/259/1 216/258/1
f 211/255/1 216/258/1 264/220/1 263/219/1
f 216/258/1 261/259/1 279/223/1 264/220/1
f 217/260/3 218/261/3 222/262/3 221/263/3
f 218/261/3 254/264/3 253/265/3 222/262/3
f 221/263/3 222/262/3 234/266/3 233/267/3
f 222/262/3 253/265/3 270/268/3 234/266/3
f 217/260/3 219/269/3 223/270/3 218/261/3
f 219/269/3 266/197/3 265/196/3 223/270/3
f 218/261/3 223/270/3 255/271/3 254/264/3
f 223/270/3 265/196/3 277/198/3 255/271/3
f 217/260/3 220/272/3 224/273/3 219/269/3
f 220/272/3 251/274/3 252/275/3 224/273/3
f 219/269/3 224/273/3 267/212/3 266/197/3
f 224/273/3 252/275/3 276/214/3 267/212/3
f 217/260/3 221/263/3 225/276/3 220/272/3
f 221/263/3 233/267/3 232/277/3 225/276/3
f 220/272/3 225/276/3 250/278/3 251/274/3
f 225/276/3 232/277/3 269/279/3 250/278/3
